# xmcd
#
# Track frame offsets:
#        182
#        92142
#        134270
#        181682
#        246842
#        288807
#
# Disc length: 4398 seconds
#
# Revision: 5
# Processed by: cddbd v1.5.1PL0 Copyright (c) Steve Scherf et al.
# Submitted via: ExactAudioCopy v0.95a5
#
DISCID=49112c06
DTITLE=Piano: Sequeira Costa, Conductor: Gilbert Varga - THE ROYAL PHI
DTITLE=LHARMONIC COLLECTION  CHOPIN Piano Concerto
DYEAR=1997
DGENRE=Classical
TTITLE0=Piano Concerto No.1 in E minor, Op.11  1st Mov: ALLEGRO MAESTO
TTITLE0=SO
TTITLE1=Piano Concerto No.1 in E minor, Op.11  2nd Mov: ROMANZE-LARGHE
TTITLE1=TTO
TTITLE2=Piano Concerto No.1 in E minor, Op.11  3rd Mov: RONDO-VIVACE
TTITLE3=Piano Concerto No.2 in F minor, Op.21  1st Mov: MAESTOSO
TTITLE4=Piano Concerto No.2 in F minor, Op.21  2nd Mov: LARGHETTO
TTITLE5=Piano Concerto No.2 in F minor, Op.21  3rd Mov: ALLEGRO VIVACE
EXTD=
EXTT0=
EXTT1=
EXTT2=
EXTT3=
EXTT4=
EXTT5=
PLAYORDER=
